<svg width="960" height="640" viewBox="0 0 960 640" fill="none" xmlns="http://www.w3.org/2000/svg" role="img" aria-label="Aplicação mobile conectada a nuvem e integrações">
  <defs>
    <linearGradient id="bg" x1="110" y1="20" x2="860" y2="620" gradientUnits="userSpaceOnUse">
      <stop stop-color="#0C111B" />
      <stop offset="1" stop-color="#121B2C" />
    </linearGradient>
    <linearGradient id="phone" x1="292" y1="136" x2="470" y2="476" gradientUnits="userSpaceOnUse">
      <stop stop-color="#1D3E77" />
      <stop offset="1" stop-color="#13284D" />
    </linearGradient>
    <linearGradient id="cloud" x1="568" y1="198" x2="798" y2="354" gradientUnits="userSpaceOnUse">
      <stop stop-color="#3E8CFF" />
      <stop offset="1" stop-color="#7BB6FF" />
    </linearGradient>
  </defs>

  <rect x="20" y="20" width="920" height="600" rx="36" fill="url(#bg)" />
  <rect x="20" y="20" width="920" height="600" rx="36" stroke="#1C2A43" stroke-width="2" />

  <rect x="268" y="112" width="224" height="420" rx="34" fill="url(#phone)" stroke="#3C66A9" stroke-width="2" />
  <rect x="292" y="152" width="176" height="320" rx="18" fill="#0B162B" stroke="#2D528B" />
  <rect x="340" y="126" width="80" height="8" rx="4" fill="#7CB1FF" />

  <rect x="310" y="182" width="140" height="88" rx="12" fill="#123C79" />
  <rect x="324" y="198" width="88" height="10" rx="5" fill="#9DC5FF" />
  <rect x="324" y="216" width="62" height="8" rx="4" fill="#6BA5FF" />
  <rect x="324" y="234" width="104" height="8" rx="4" fill="#3F7FE2" />

  <rect x="310" y="290" width="140" height="62" rx="12" fill="#0E2E5D" />
  <circle cx="336" cy="321" r="10" fill="#86B9FF" />
  <rect x="354" y="315" width="74" height="10" rx="5" fill="#78AFFF" />

  <rect x="310" y="366" width="140" height="88" rx="12" fill="#123C79" />
  <rect x="324" y="384" width="108" height="8" rx="4" fill="#9CC4FF" />
  <rect x="324" y="402" width="96" height="8" rx="4" fill="#6AA4FF" />
  <rect x="324" y="420" width="78" height="8" rx="4" fill="#447FE1" />

  <g>
    <ellipse cx="684" cy="252" rx="118" ry="74" fill="url(#cloud)" />
    <ellipse cx="626" cy="258" rx="60" ry="46" fill="url(#cloud)" />
    <ellipse cx="750" cy="265" rx="60" ry="46" fill="url(#cloud)" />
    <text x="684" y="260" text-anchor="middle" fill="#0A1C39" font-family="system-ui, sans-serif" font-size="18" font-weight="700">Cloud API</text>
    <text x="684" y="284" text-anchor="middle" fill="#15396E" font-family="system-ui, sans-serif" font-size="13" font-weight="600">Sync + Auth + Data</text>
  </g>

  <g stroke="#78AEFF" stroke-width="4" stroke-linecap="round" stroke-dasharray="10 12" opacity="0.9">
    <line x1="492" y1="238" x2="566" y2="238" />
    <line x1="492" y1="322" x2="566" y2="280" />
    <line x1="492" y1="406" x2="566" y2="322" />
  </g>

  <g>
    <rect x="604" y="360" width="160" height="56" rx="14" fill="#122C56" stroke="#4478C8" />
    <text x="684" y="394" text-anchor="middle" fill="#D7E9FF" font-family="system-ui, sans-serif" font-size="14" font-weight="600">React Native App</text>
  </g>

  <g>
    <rect x="604" y="436" width="160" height="56" rx="14" fill="#122C56" stroke="#4478C8" />
    <text x="684" y="470" text-anchor="middle" fill="#D7E9FF" font-family="system-ui, sans-serif" font-size="14" font-weight="600">n8n Integrations</text>
  </g>
</svg>
