<svg width="960" height="640" viewBox="0 0 960 640" fill="none" xmlns="http://www.w3.org/2000/svg" role="img" aria-label="Interface tecnológica com painéis de monitoramento">
  <defs>
    <linearGradient id="bg" x1="120" y1="40" x2="860" y2="620" gradientUnits="userSpaceOnUse">
      <stop stop-color="#0E0E10" />
      <stop offset="1" stop-color="#151A27" />
    </linearGradient>
    <linearGradient id="panel" x1="120" y1="132" x2="792" y2="536" gradientUnits="userSpaceOnUse">
      <stop stop-color="#1B6AFF" stop-opacity="0.26" />
      <stop offset="1" stop-color="#1B6AFF" stop-opacity="0.05" />
    </linearGradient>
    <linearGradient id="chart" x1="310" y1="282" x2="768" y2="282" gradientUnits="userSpaceOnUse">
      <stop stop-color="#66A3FF" />
      <stop offset="1" stop-color="#CFE3FF" />
    </linearGradient>
    <radialGradient id="pulse" cx="0" cy="0" r="1" gradientUnits="userSpaceOnUse" gradientTransform="translate(748 152) rotate(90) scale(180 250)">
      <stop stop-color="#1B6AFF" stop-opacity="0.42" />
      <stop offset="1" stop-color="#1B6AFF" stop-opacity="0" />
    </radialGradient>
  </defs>

  <rect x="20" y="20" width="920" height="600" rx="36" fill="url(#bg)" />
  <rect x="20" y="20" width="920" height="600" rx="36" stroke="#1E2A44" stroke-width="2" />
  <rect x="20" y="20" width="920" height="600" rx="36" fill="url(#pulse)" />

  <rect x="68" y="78" width="824" height="484" rx="24" fill="#0C1220" stroke="#273B63" />
  <rect x="68" y="78" width="824" height="72" rx="24" fill="#111B31" />

  <circle cx="112" cy="114" r="8" fill="#FF5B7B" />
  <circle cx="138" cy="114" r="8" fill="#FFB84D" />
  <circle cx="164" cy="114" r="8" fill="#2BD48A" />

  <rect x="206" y="98" width="220" height="30" rx="8" fill="#0E274F" stroke="#2B4F87" />
  <rect x="224" y="109" width="106" height="8" rx="4" fill="#6FA9FF" />

  <rect x="728" y="98" width="130" height="30" rx="8" fill="#153364" />
  <rect x="754" y="109" width="78" height="8" rx="4" fill="#C7DDFF" />

  <g opacity="0.92">
    <rect x="96" y="174" width="176" height="120" rx="16" fill="url(#panel)" stroke="#2A487F" />
    <text x="116" y="206" fill="#D7E6FF" font-family="system-ui, sans-serif" font-size="16" font-weight="600">Latency</text>
    <text x="116" y="255" fill="#EAF2FF" font-family="system-ui, sans-serif" font-size="34" font-weight="700">42 ms</text>
    <rect x="116" y="266" width="128" height="8" rx="4" fill="#2F4F8A" />
    <rect x="116" y="266" width="89" height="8" rx="4" fill="#78B0FF" />
  </g>

  <g opacity="0.92">
    <rect x="96" y="314" width="176" height="220" rx="16" fill="url(#panel)" stroke="#2A487F" />
    <text x="116" y="348" fill="#D7E6FF" font-family="system-ui, sans-serif" font-size="16" font-weight="600">Deploy Status</text>
    <rect x="116" y="372" width="136" height="36" rx="10" fill="#11346B" />
    <text x="134" y="395" fill="#8FC0FF" font-family="system-ui, sans-serif" font-size="14" font-weight="600">Production</text>
    <rect x="116" y="426" width="136" height="36" rx="10" fill="#11346B" />
    <text x="134" y="449" fill="#8FC0FF" font-family="system-ui, sans-serif" font-size="14" font-weight="600">Staging</text>
    <rect x="116" y="480" width="136" height="36" rx="10" fill="#11346B" />
    <text x="134" y="503" fill="#8FC0FF" font-family="system-ui, sans-serif" font-size="14" font-weight="600">Monitoring</text>
  </g>

  <g>
    <rect x="294" y="174" width="566" height="360" rx="18" fill="#0F1A30" stroke="#2A487F" />
    <rect x="318" y="198" width="124" height="12" rx="6" fill="#82B6FF" />
    <rect x="318" y="220" width="74" height="8" rx="4" fill="#305996" />

    <line x1="318" y1="490" x2="834" y2="490" stroke="#25497F" stroke-width="1" />
    <line x1="318" y1="430" x2="834" y2="430" stroke="#1E3F70" stroke-width="1" />
    <line x1="318" y1="370" x2="834" y2="370" stroke="#1E3F70" stroke-width="1" />
    <line x1="318" y1="310" x2="834" y2="310" stroke="#1E3F70" stroke-width="1" />

    <path d="M332 454L392 410L444 434L506 364L564 392L624 320L684 348L744 286L814 310" stroke="url(#chart)" stroke-width="5" stroke-linecap="round" stroke-linejoin="round" />
    <circle cx="506" cy="364" r="7" fill="#B9D7FF" />
    <circle cx="624" cy="320" r="7" fill="#B9D7FF" />
    <circle cx="744" cy="286" r="7" fill="#B9D7FF" />
  </g>
</svg>
